<?xml version="1.0" standalone="no"?>
<!DOCTYPE svg PUBLIC "-//W3C//DTD SVG 20010904//EN"
 "http://www.w3.org/TR/2001/REC-SVG-20010904/DTD/svg10.dtd">
<svg version="1.0" xmlns="http://www.w3.org/2000/svg"
 width="511.000000pt" height="1080.000000pt" viewBox="0 0 511.000000 1080.000000"
 preserveAspectRatio="xMidYMid meet">

<g transform="translate(0.000000,1080.000000) scale(0.100000,-0.100000)"
fill="#000000" stroke="none">
<path d="M2260 9865 c-25 -8 -56 -15 -70 -15 -46 -1 -223 -69 -255 -99 -51
-48 -149 -117 -173 -124 -17 -4 -27 1 -38 19 -22 33 -35 30 -21 -5 8 -21 7
-36 -2 -60 -13 -30 -31 -42 -31 -21 0 6 -5 10 -11 10 -6 0 -9 -14 -7 -32 3
-35 0 -37 -50 -24 -56 13 -86 -36 -41 -67 28 -20 18 -84 -14 -89 -30 -4 -40
-51 -16 -72 23 -19 25 -46 4 -46 -18 0 -19 -12 -3 -28 8 -8 8 -15 -2 -26 -7
-9 -10 -29 -7 -48 15 -95 39 -214 62 -303 14 -55 26 -119 27 -142 1 -24 5 -43
8 -43 19 1 28 25 33 100 8 104 56 322 92 411 31 80 94 147 171 183 84 40 101
42 130 15 23 -22 24 -22 24 -2 0 17 7 20 48 21 34 0 53 -5 69 -20 20 -19 22
-19 31 -2 14 25 41 26 73 3 15 -10 34 -19 43 -19 14 0 35 -25 84 -96 11 -18
12 -17 10 6 -3 22 0 25 27 23 80 -7 98 -12 108 -29 14 -26 30 -35 41 -24 11
11 46 -16 46 -36 0 -7 8 -14 17 -16 16 -3 16 -4 0 -20 -9 -9 -17 -24 -17 -32
0 -9 -4 -16 -9 -16 -5 0 -12 -16 -16 -36 -5 -30 -10 -35 -26 -31 -12 3 -22 0
-25 -8 -9 -23 14 -53 46 -60 17 -4 44 -20 60 -37 30 -30 30 -30 10 -48 -11 -9
-17 -20 -14 -23 3 -3 -2 -4 -13 -3 -10 2 -43 -6 -73 -16 -30 -11 -95 -26 -145
-34 -134 -21 -145 -24 -145 -40 0 -10 6 -11 26 -4 40 16 57 13 49 -7 -20 -48
-19 -53 8 -40 13 6 23 16 20 22 -2 6 5 19 16 29 19 17 20 17 31 -3 17 -34 67
-54 114 -47 63 10 109 7 118 -7 4 -6 8 -47 8 -90 l0 -78 -57 -25 c-31 -14 -92
-30 -135 -37 -70 -10 -82 -9 -111 6 -31 17 -87 100 -87 129 0 7 -16 27 -35 43
-42 36 -44 57 -7 75 48 23 -2 24 -63 1 -63 -24 -115 -26 -182 -10 -53 14 -182
-5 -197 -29 -5 -9 -18 -12 -40 -8 -17 3 -38 1 -46 -4 -12 -8 -9 -10 13 -10 15
0 36 -5 47 -12 16 -10 24 -9 49 10 34 25 47 27 58 10 21 -33 41 -40 80 -28 21
7 43 19 50 27 10 13 14 12 32 -6 29 -29 30 -159 2 -214 -12 -23 -15 -37 -8
-35 13 4 106 175 107 197 0 9 -7 11 -25 7 -30 -8 -36 18 -7 32 25 14 61 -3 73
-35 5 -16 26 -60 45 -100 28 -56 44 -76 72 -91 28 -14 38 -26 40 -49 4 -43
-14 -54 -66 -40 -33 9 -47 9 -60 -1 -9 -7 -25 -15 -34 -18 -10 -4 -18 -10 -18
-15 0 -12 32 -11 64 1 31 12 57 3 49 -16 -8 -22 36 -17 82 9 37 21 40 26 40
67 -1 25 -3 52 -5 60 -4 10 8 16 45 21 72 10 173 37 216 59 42 22 49 40 49
128 0 80 10 99 63 113 23 6 45 15 48 21 3 5 25 12 49 15 50 7 49 -11 -1 -22
l-30 -7 30 -29 c17 -16 38 -29 46 -29 19 0 20 -36 1 -47 -22 -13 -22 -45 2
-90 27 -52 27 -58 1 -91 -15 -20 -19 -35 -14 -59 4 -20 2 -33 -5 -33 -5 0 -10
-13 -10 -30 0 -16 5 -30 10 -30 6 0 10 5 10 12 0 25 18 -8 23 -43 6 -38 -4
-65 -21 -55 -5 3 -12 -12 -15 -35 -6 -42 -30 -79 -54 -79 -7 0 -13 -9 -13 -21
0 -30 -69 -95 -118 -111 -23 -7 -42 -18 -42 -25 0 -20 -69 -80 -99 -86 -25 -5
-39 -25 -39 -54 0 -3 -7 -10 -16 -15 -9 -5 -16 -15 -16 -21 0 -17 -65 -77 -83
-77 -8 0 -20 -7 -27 -15 -7 -8 -18 -15 -24 -15 -6 -1 -29 -9 -51 -20 -22 -11
-47 -20 -55 -20 -13 0 -13 -1 0 -10 8 -5 42 -10 75 -10 36 0 92 -10 139 -26
70 -22 94 -25 210 -22 83 1 138 -2 151 -9 11 -6 28 -14 38 -17 10 -3 17 -15
17 -31 0 -18 5 -25 20 -25 19 0 44 -31 35 -44 -3 -3 -2 -4 1 -1 9 6 44 -40 44
-58 0 -9 5 -19 10 -22 19 -12 10 -47 -26 -101 -41 -61 -73 -88 -136 -110 -23
-8 -63 -32 -88 -53 -25 -21 -62 -43 -82 -50 -21 -7 -40 -17 -44 -22 -3 -5 -29
-24 -57 -43 -58 -37 -139 -119 -182 -184 -21 -32 -31 -40 -40 -32 -23 19 -115
158 -115 173 0 8 -7 20 -15 27 -9 7 -14 19 -11 25 2 7 -6 34 -18 61 -24 53
-40 198 -36 344 2 85 -25 220 -44 220 -20 0 -76 -58 -190 -198 -60 -74 -118
-137 -130 -142 -67 -27 -311 -138 -370 -168 -92 -48 -168 -120 -232 -219 -29
-44 -58 -84 -64 -88 -37 -23 -80 -204 -109 -460 -57 -512 -81 -715 -90 -760
-18 -94 -72 -330 -102 -452 -17 -68 -29 -129 -26 -137 4 -9 33 -29 65 -45 58
-29 158 -49 332 -66 36 -4 82 -11 103 -17 l38 -9 -6 -137 c-17 -363 -33 -462
-75 -462 -25 0 -120 -127 -120 -162 0 -15 -3 -28 -8 -28 -4 0 -6 -17 -4 -38 2
-21 -1 -65 -8 -98 -6 -32 -13 -77 -15 -98 -12 -105 -89 -443 -106 -460 -5 -6
-9 -22 -9 -37 0 -30 -15 -82 -34 -119 -8 -14 -21 -56 -31 -95 -9 -38 -20 -74
-24 -80 -7 -8 -39 -105 -83 -245 -16 -49 -27 -101 -43 -200 -8 -47 -21 -119
-30 -160 -30 -145 -30 -171 -1 -254 14 -42 26 -95 26 -119 0 -23 5 -58 10 -78
32 -115 24 -240 -20 -331 -12 -24 -20 -61 -20 -83 2 -75 0 -110 -8 -113 -5 -1
-5 -26 -2 -55 10 -73 -1 -97 -43 -97 -20 0 -46 9 -61 21 -25 19 -26 25 -26
108 0 48 7 113 15 144 8 32 15 66 14 75 -1 9 -6 0 -11 -21 -11 -43 -30 -56
-53 -37 -20 16 -19 50 1 79 13 18 23 22 44 17 23 -4 29 -1 34 17 5 18 -6 112
-21 187 -5 23 -6 24 -13 5 -5 -11 -9 -38 -10 -60 -1 -36 -5 -43 -45 -68 -26
-16 -45 -36 -45 -46 0 -10 -7 -33 -16 -51 -13 -25 -15 -50 -11 -114 3 -44 1
-101 -4 -126 -9 -41 -7 -51 21 -105 16 -33 30 -63 30 -68 0 -4 20 -35 45 -69
46 -64 53 -86 34 -105 -14 -14 -2 -53 16 -53 9 0 12 -6 9 -15 -4 -8 -3 -23 1
-32 14 -33 14 -123 0 -131 -7 -4 -15 -16 -17 -27 -2 -11 -9 -19 -15 -18 -12 3
-17 -8 -28 -67 -4 -19 -12 -41 -19 -49 -6 -8 -12 -28 -13 -45 -1 -30 -10 -75
-19 -105 -4 -11 -7 -11 -22 0 -14 11 -15 11 -5 -1 17 -18 16 -61 -1 -85 -7
-11 -17 -33 -21 -50 -5 -16 -9 -34 -11 -40 -2 -5 -8 -30 -14 -55 -6 -25 -15
-49 -21 -54 -5 -6 -9 -24 -9 -42 0 -17 -6 -37 -14 -43 -8 -6 -16 -26 -19 -44
-3 -18 -9 -48 -14 -67 -20 -76 -72 -70 597 -70 l598 0 11 44 c6 24 41 90 79
147 38 57 86 133 107 169 46 78 74 117 135 190 81 96 135 172 217 300 102 162
291 412 306 407 8 -3 11 -26 9 -74 -3 -47 1 -81 12 -107 9 -23 16 -67 16 -108
0 -39 7 -95 16 -126 15 -49 15 -71 5 -162 -8 -79 -8 -120 1 -165 6 -33 12
-112 12 -175 1 -63 5 -166 10 -228 l9 -112 620 0 620 0 -7 188 -8 187 31 119
c24 90 31 140 31 210 0 99 29 225 69 303 11 24 28 73 37 109 20 90 38 121 77
138 44 18 59 38 98 131 30 72 33 90 33 181 l1 101 41 45 c23 25 45 55 49 67
12 40 35 25 35 -25 0 -42 2 -46 35 -60 20 -8 74 -24 122 -35 47 -11 99 -30
115 -42 28 -21 54 -62 49 -80 -1 -4 5 -15 14 -23 9 -10 13 -25 10 -42 -8 -38
-26 -103 -34 -126 -4 -11 -4 -42 0 -69 5 -27 4 -57 0 -66 -5 -9 -8 -27 -6 -41
1 -14 3 -31 4 -37 0 -7 6 -13 12 -13 6 0 9 9 6 20 -3 13 0 20 8 20 8 0 16 10
19 22 3 13 3 -13 0 -57 -6 -90 -12 -125 -24 -125 -4 0 -11 11 -14 24 -7 30
-33 39 -82 30 -49 -9 -99 -60 -115 -115 -7 -24 -21 -59 -31 -77 -10 -18 -18
-36 -18 -41 0 -20 -75 -131 -91 -136 -11 -4 -22 -17 -25 -31 -3 -13 -14 -29
-23 -34 -14 -8 -13 -9 5 -10 12 0 43 17 69 37 48 37 49 37 136 34 116 -3 142
11 194 106 0 1 16 5 34 8 55 9 68 22 101 90 30 63 32 65 69 65 99 0 121 126
84 476 l-17 162 23 93 c18 72 22 107 16 154 -8 75 -25 102 -81 126 -24 11 -48
29 -54 39 -7 12 -14 205 -20 497 -10 480 -24 692 -60 943 -10 74 -28 203 -40
285 -11 83 -32 210 -46 284 -18 98 -24 151 -19 195 3 34 12 176 19 317 7 141
16 261 19 266 4 5 44 18 91 28 47 9 91 24 97 31 8 10 5 33 -14 91 -14 43 -35
137 -47 208 -12 72 -45 220 -72 330 -46 188 -49 211 -59 395 -10 219 -24 352
-45 455 -8 39 -22 117 -30 174 -17 121 -49 221 -94 291 -46 72 -153 168 -286
256 -66 44 -195 132 -289 197 -93 66 -213 145 -265 178 -119 73 -185 143 -214
224 -26 73 -60 95 -148 95 -76 0 -87 6 -110 59 -58 135 -64 439 -10 493 18 18
15 25 -13 32 -14 4 -25 13 -25 21 0 16 24 25 75 27 34 1 42 7 82 62 123 167
136 273 44 360 l-31 30 3 120 c4 170 -8 433 -22 486 -38 141 -147 254 -279
289 -24 7 -46 20 -49 29 -4 9 -11 20 -17 24 -7 5 -4 8 7 8 10 0 17 5 15 12 -3
8 -25 11 -66 9 -36 -1 -62 2 -62 7 0 6 -13 13 -30 17 -16 4 -30 10 -30 14 0
34 -360 54 -450 26z m604 -978 c-1 -9 4 -17 12 -17 8 0 11 -6 7 -16 -4 -10 1
-17 16 -21 35 -9 24 -21 -25 -29 -32 -4 -49 -3 -54 5 -4 8 -17 10 -33 5 -36
-8 -34 7 2 29 16 9 32 28 35 43 8 29 42 30 40 1z m364 -198 c1 -8 -5 -23 -14
-34 -13 -16 -15 -17 -10 -3 3 10 -2 22 -12 28 -15 8 -15 11 -2 20 19 12 34 8
38 -11z m-90 -267 c3 -34 -5 -40 -30 -19 -21 17 -29 45 -15 51 27 11 42 0 45
-32z m-1011 -1802 c12 -10 26 -41 32 -67 6 -26 18 -71 25 -100 18 -66 13 -86
-32 -117 -42 -28 -117 -50 -134 -40 -10 7 -8 83 9 252 5 59 8 64 37 77 41 18
39 18 63 -5z m-181 -175 c19 -82 32 -156 29 -162 -2 -7 -15 -13 -28 -13 -19 0
-26 7 -30 30 -12 55 -57 30 -57 -31 0 -40 -25 -73 -36 -46 -3 8 -1 66 5 128 6
63 11 137 11 166 0 57 19 86 53 81 17 -3 24 -24 53 -153z m777 129 c-1 -5 -9
-53 -18 -105 -9 -52 -25 -129 -37 -172 -18 -69 -23 -78 -42 -75 -18 3 -21 9
-19 51 2 26 0 47 -5 47 -4 0 -16 3 -28 6 -16 4 -26 -2 -42 -28 -29 -44 -28
-18 2 71 22 64 73 156 115 204 16 19 77 21 74 1z m-919 -196 c-6 -157 -8 -175
-26 -190 -41 -36 -51 -25 -100 110 -62 171 -63 173 -47 183 34 21 45 9 74 -82
16 -50 33 -93 37 -95 4 -3 8 47 8 110 0 99 2 116 18 125 41 24 42 19 36 -161z
m1110 152 c21 -8 26 -16 26 -44 0 -51 -19 -88 -44 -84 -13 2 -19 9 -17 18 13
50 13 60 -1 60 -8 0 -22 -8 -30 -17 -29 -35 -109 -195 -104 -209 9 -23 29 -16
57 18 18 21 32 29 43 25 40 -15 -10 -97 -68 -111 -43 -11 -63 -3 -86 37 -14
25 -12 32 44 143 59 116 83 148 121 164 27 12 30 12 59 0z m219 -90 c5 -5 4
-17 -3 -29 -9 -18 -17 -21 -43 -16 -32 6 -32 5 -92 -104 -49 -90 -64 -111 -82
-111 -34 0 -29 21 35 143 31 60 53 111 47 113 -35 14 -39 22 -22 48 l17 25 67
-31 c38 -17 72 -34 76 -38z m-1533 -7 c0 -9 -16 -30 -35 -47 -32 -27 -35 -35
-29 -64 5 -22 11 -31 20 -28 8 4 21 9 29 12 28 11 29 -26 1 -55 -27 -28 -32
-55 -16 -81 8 -12 14 -12 45 3 40 19 55 16 55 -13 0 -22 -105 -94 -125 -86 -7
2 -19 50 -29 118 -9 62 -19 127 -22 145 -4 27 2 38 40 78 43 45 66 51 66 18z
m1596 -27 c3 -8 -7 -34 -24 -58 -16 -24 -48 -76 -71 -115 -34 -59 -46 -73 -66
-73 -39 0 -42 -6 102 223 24 38 49 48 59 23z m69 -30 c22 -16 23 -15 -53 -151
-31 -56 -45 -71 -66 -73 -15 -2 -26 2 -26 9 0 15 112 229 120 229 3 0 15 -6
25 -14z m-1776 -199 c27 -111 31 -140 21 -152 -21 -25 -36 -17 -75 36 -20 28
-39 48 -42 45 -3 -3 7 -39 22 -80 23 -62 25 -79 15 -91 -20 -24 -40 -18 -54
18 -92 231 -108 278 -96 292 25 30 55 17 106 -45 27 -33 52 -60 57 -60 10 0
10 -1 -13 65 -11 32 -20 66 -20 75 0 20 20 42 35 37 5 -2 25 -65 44 -140z
m1899 121 c8 -8 -5 -29 -55 -85 -57 -63 -70 -73 -99 -73 -19 0 -34 3 -34 7 0
14 146 161 161 162 8 0 20 -4 27 -11z m76 -71 c42 -55 30 -101 -16 -60 -17 16
-20 15 -51 -15 -24 -23 -38 -30 -55 -26 -12 4 -22 12 -22 18 0 13 99 116 112
116 4 0 18 -15 32 -33z m-1284 -104 c0 -9 -8 -25 -17 -35 -15 -17 -15 -19 3
-32 10 -8 64 -19 119 -26 55 -6 119 -13 143 -16 38 -5 44 -3 49 15 8 30 18 26
41 -13 12 -21 30 -36 44 -38 18 -2 35 -27 83 -124 33 -66 77 -148 98 -181 20
-33 37 -72 37 -86 0 -30 -38 -69 -120 -125 -92 -62 -114 -82 -140 -130 -21
-40 -30 -47 -55 -47 -20 0 -50 -16 -90 -46 -104 -79 -214 -159 -219 -159 -2 0
-41 55 -87 121 -58 87 -90 125 -111 133 -17 6 -27 17 -26 26 3 12 22 15 113
13 61 -1 141 -9 178 -17 38 -9 112 -19 165 -22 l97 -7 20 44 c14 30 35 54 66
74 37 24 97 71 173 136 5 4 -16 46 -45 92 -30 46 -72 125 -93 175 -27 65 -44
92 -56 92 -9 0 -42 9 -72 19 -30 10 -113 29 -183 41 -107 19 -135 21 -179 11
-28 -6 -60 -12 -70 -13 -12 -2 -43 -38 -78 -88 -32 -47 -86 -116 -121 -155
-35 -38 -67 -76 -71 -83 -6 -9 22 -44 88 -111 59 -61 96 -106 96 -119 0 -32
-16 -35 -35 -6 -10 15 -60 68 -113 119 -91 88 -96 94 -85 118 10 21 9 26 -3
31 -9 3 -14 13 -12 21 5 22 91 124 106 125 6 0 12 5 12 10 0 6 5 17 12 24 10
11 15 11 26 -1 19 -18 29 -16 42 7 9 16 7 24 -5 36 -26 27 21 88 50 64 18 -15
20 1 3 18 -6 6 -8 15 -3 19 4 5 10 2 12 -4 6 -18 28 -16 43 2 7 8 27 15 45 15
34 0 37 3 88 75 21 29 37 33 37 8z m1 -285 c34 -62 63 -115 65 -117 8 -10 48
19 129 94 48 44 92 82 96 83 5 2 9 -6 9 -17 0 -13 -34 -51 -97 -107 -54 -47
-100 -91 -102 -96 -1 -5 29 -62 68 -126 39 -65 71 -123 71 -130 0 -36 -37 4
-98 107 -38 63 -74 117 -81 119 -7 2 -57 -42 -112 -98 -74 -76 -101 -97 -105
-86 -8 21 72 115 143 170 29 23 53 47 53 55 0 7 -22 50 -49 95 -66 110 -83
145 -76 156 13 21 25 6 86 -102z m505 57 c3 -14 10 -25 15 -25 5 0 9 -5 9 -11
0 -8 -4 -8 -15 1 -8 6 -19 9 -24 6 -16 -10 -32 29 -19 42 18 18 27 14 34 -13z
m41 -71 c4 -11 -1 -22 -12 -30 -10 -8 -14 -14 -9 -14 6 0 15 5 22 12 9 9 13 7
18 -6 6 -16 -9 -35 -27 -36 -11 0 -40 70 -34 80 10 16 35 12 42 -6z m-1072
-21 c-3 -10 -11 -37 -18 -60 -12 -45 -29 -59 -26 -20 4 40 -1 67 -11 67 -5 0
-10 -7 -10 -16 0 -13 -3 -14 -13 -5 -8 6 -17 8 -20 4 -4 -3 -7 -1 -7 5 0 18
35 32 104 41 4 0 5 -7 1 -16z m415 -22 c5 -11 10 -33 10 -49 0 -32 -56 -152
-71 -152 -12 0 -12 4 9 46 11 25 13 38 6 41 -7 2 -10 21 -6 51 8 76 30 103 52
63z m-550 -43 c0 -15 6 -33 14 -41 9 -9 11 -19 6 -28 -15 -23 -28 1 -35 66 -5
43 -3 56 4 45 6 -8 11 -27 11 -42z m-45 -8 c29 -58 31 -75 8 -66 -9 4 -20 1
-24 -6 -12 -18 -18 -7 -25 45 -6 43 -1 77 11 77 2 0 16 -22 30 -50z m-68 -38
c5 -42 3 -53 -11 -58 -9 -3 -23 -1 -31 6 -12 10 -15 9 -15 -4 0 -9 -7 -16 -15
-16 -11 0 -15 11 -15 43 0 23 -3 51 -6 62 -4 16 0 20 20 21 22 2 26 -3 32 -42
3 -24 10 -44 15 -44 11 0 11 17 0 57 -5 17 -7 34 -3 37 12 12 23 -12 29 -62z
m1103 53 c0 -9 -7 -18 -15 -21 -9 -4 -20 -15 -26 -26 -9 -16 -7 -23 10 -35 26
-18 27 -30 1 -38 -23 -7 -50 -32 -50 -46 0 -20 30 -8 43 17 19 36 33 13 17
-26 -17 -42 -36 -44 -59 -7 -17 28 -18 39 -10 76 11 48 24 77 47 104 19 21 42
22 42 2z m260 1 c0 -2 -7 -7 -16 -10 -8 -3 -12 -2 -9 4 6 10 25 14 25 6z
m-1193 -48 c-3 -7 -5 -2 -5 12 0 14 2 19 5 13 2 -7 2 -19 0 -25z m328 -28 c0
-29 -32 -41 -41 -16 -9 24 4 48 23 44 12 -2 18 -12 18 -28z m-240 -14 c0 -10
-83 -35 -217 -66 -105 -24 -128 -25 -128 -5 0 15 3 16 108 35 34 6 88 20 120
30 58 19 117 22 117 6z m990 -41 c0 -13 -8 -21 -22 -23 -19 -3 -23 1 -23 23 0
22 4 26 23 23 14 -2 22 -10 22 -23z m-1057 -78 c1 -62 1 -63 -30 -75 -17 -6
-35 -9 -40 -6 -5 3 -16 -2 -23 -12 -22 -29 -48 -6 -59 50 -7 39 -5 51 7 64 15
14 18 14 36 -2 18 -17 19 -17 25 2 4 12 21 24 44 30 20 5 37 10 37 11 1 1 1
-27 3 -62z m-172 -32 c18 -52 18 -74 -1 -81 -24 -10 -43 14 -51 61 -11 76 27
91 52 20z m390 -4 c-13 -20 -26 -11 -26 16 0 25 1 26 16 11 9 -9 13 -21 10
-27z m30 -16 c4 -8 11 -15 16 -15 6 0 24 -14 40 -32 22 -24 28 -36 20 -48 -13
-21 -25 -17 -40 14 -7 14 -17 26 -22 26 -5 0 -7 6 -4 14 3 9 -1 13 -13 13 -12
-1 -19 6 -21 21 -4 25 15 30 24 7z m894 -9 c0 -2 3 -12 7 -22 5 -14 3 -16 -11
-11 -14 6 -17 3 -12 -9 4 -12 2 -15 -9 -10 -8 3 -15 1 -15 -5 0 -15 -24 -37
-46 -41 -13 -2 -19 3 -19 17 0 14 6 19 19 17 10 -2 15 1 12 7 -3 5 8 21 26 35
31 24 48 32 48 22z m-132 -124 c3 -9 -2 -13 -14 -10 -9 1 -19 9 -22 16 -3 9 2
13 14 10 9 -1 19 -9 22 -16z m-30 -37 c-3 -3 -9 2 -12 12 -6 14 -5 15 5 6 7
-7 10 -15 7 -18z m-373 -291 c176 -26 256 -34 419 -40 150 -6 161 -8 183 -30
20 -20 23 -31 19 -71 -3 -27 -8 -83 -12 -126 -8 -107 -10 -108 -184 -96 -74 5
-169 13 -210 18 -41 6 -113 13 -160 16 -47 3 -166 12 -265 20 -99 8 -207 16
-239 18 -74 3 -86 17 -67 79 7 24 19 77 28 118 18 94 23 103 59 112 43 10 315
-2 429 -18z m2092 -347 c34 -18 39 -32 48 -132 8 -93 13 -126 22 -138 9 -11
23 -69 57 -232 27 -126 38 -240 31 -325 -9 -124 -6 -259 6 -281 7 -14 7 -36
-1 -76 -11 -53 -11 -57 10 -73 22 -17 34 -83 47 -275 3 -44 9 -82 14 -85 4 -3
9 -44 10 -90 1 -47 5 -89 9 -95 19 -26 30 -215 30 -520 1 -135 3 -151 20 -170
16 -17 21 -38 23 -91 2 -82 -22 -140 -89 -211 l-42 -44 -61 10 c-62 10 -144
41 -155 59 -9 15 -29 227 -27 287 2 78 -9 132 -132 655 -84 356 -80 324 -122
900 -9 118 -23 244 -31 280 -33 142 -46 226 -69 464 -8 82 -12 152 -10 157 27
43 340 63 412 26z m-2607 -27 c0 -19 -17 -36 -27 -26 -3 3 -2 17 1 31 7 28 26
25 26 -5z m105 22 c12 -5 21 -17 23 -34 3 -27 1 -28 -48 -28 -56 0 -69 14 -50
49 11 21 36 25 75 13z m96 -29 l1 -28 10 28 c5 15 14 27 19 27 5 0 9 -12 10
-27 0 -27 1 -27 9 -5 8 18 17 22 57 22 69 0 93 -9 94 -34 2 -20 2 -20 6 2 4
21 33 32 33 12 0 -5 -4 -10 -10 -10 -5 0 -10 -7 -10 -15 0 -8 5 -15 12 -15 8
0 8 -3 3 -9 -6 -5 -22 -7 -37 -4 -23 4 -28 11 -28 35 0 17 -4 27 -10 23 -6 -4
-8 -11 -4 -16 3 -5 0 -16 -6 -24 -10 -12 -26 -14 -74 -8 -33 3 -72 7 -86 7
-21 1 -26 7 -28 34 -3 27 0 32 17 32 16 0 21 -7 22 -27z m269 -3 c0 -5 -4 -10
-10 -10 -5 0 -10 5 -10 10 0 6 5 10 10 10 6 0 10 -4 10 -10z m51 -12 c0 -10 2
-10 6 0 11 27 33 12 33 -23 0 -37 -5 -41 -30 -25 -9 6 -17 5 -22 -3 -10 -16
-28 9 -28 41 0 15 6 22 20 22 11 0 20 -6 21 -12z m73 -20 c-6 -45 -14 -48 -14
-5 0 21 4 37 9 37 4 0 7 -14 5 -32z m54 -12 c-2 -15 -7 -28 -13 -29 -12 -2
-19 38 -10 60 9 25 27 1 23 -31z m92 7 c0 -28 -16 -47 -34 -40 -9 4 -16 18
-16 32 0 20 5 25 25 25 17 0 25 -5 25 -17z m70 7 c0 -5 -4 -10 -10 -10 -5 0
-10 5 -10 10 0 6 5 10 10 10 6 0 10 -4 10 -10z m-43 -32 c-3 -7 -5 -2 -5 12 0
14 2 19 5 13 2 -7 2 -19 0 -25z m93 2 c0 -22 -4 -28 -15 -24 -8 4 -15 17 -15
30 0 15 6 24 15 24 10 0 15 -10 15 -30z m68 -2 c-2 -20 -9 -34 -19 -36 -12 -2
-14 5 -11 33 6 47 35 50 30 3z m38 16 c-3 -9 -6 -27 -6 -42 0 -17 -3 -23 -10
-16 -12 12 -2 74 12 74 6 0 7 -7 4 -16z m54 -4 c0 -5 -2 -10 -4 -10 -3 0 -8 5
-11 10 -3 6 -1 10 4 10 6 0 11 -4 11 -10z m42 -24 c2 -22 -1 -30 -14 -32 -15
-2 -17 3 -12 24 13 51 20 54 26 8z m116 7 c0 -10 1 -24 3 -32 2 -7 -2 -15 -9
-16 -7 -2 -8 -1 -2 2 7 3 6 11 -1 24 -5 11 -7 24 -4 29 9 15 14 12 13 -7z
m-56 -28 c3 -13 1 -22 -3 -19 -9 5 -13 44 -5 44 2 0 6 -11 8 -25z m-1467 -843
c34 -24 45 -54 56 -143 l11 -96 -70 -139 c-38 -76 -78 -168 -89 -204 -82 -265
-77 -241 -59 -298 l17 -51 -30 -45 c-17 -24 -47 -59 -67 -77 -20 -19 -44 -42
-53 -52 -9 -10 -32 -35 -52 -55 -57 -59 -73 -127 -44 -195 8 -20 15 -52 15
-71 0 -40 -85 -216 -104 -216 -7 0 -28 37 -46 83 -29 74 -32 89 -27 157 10
140 51 280 133 454 42 89 114 251 159 361 46 110 100 238 120 285 20 47 50
132 67 190 37 130 38 131 63 112z m3281 -1821 c-9 -10 -16 -25 -16 -35 0 -14
-8 -17 -42 -14 -30 2 -43 8 -43 18 0 9 9 15 22 14 13 0 38 12 55 27 34 28 52
21 24 -10z m-26 -255 c0 -11 -19 -15 -25 -6 -3 5 1 10 9 10 9 0 16 -2 16 -4z
m-4006 -279 c7 -30 -3 -67 -20 -67 -14 0 -30 62 -19 79 11 19 33 12 39 -12z
m3917 -424 c6 -16 8 -46 5 -69 -7 -58 -45 -154 -63 -161 -31 -12 -35 13 -19
112 21 131 53 180 77 118z"/>
<path d="M2086 6558 c-2 -7 -7 -55 -10 -105 -5 -80 -4 -93 10 -93 37 0 54 20
54 63 -1 83 -40 182 -54 135z"/>
<path d="M1870 6415 c0 -14 5 -25 10 -25 6 0 10 11 10 25 0 14 -4 25 -10 25
-5 0 -10 -11 -10 -25z"/>
<path d="M2610 6425 c-18 -30 -20 -39 -9 -45 19 -12 27 -4 35 36 9 49 0 51
-26 9z"/>
<path d="M1860 5850 c0 -5 -6 -10 -14 -10 -7 0 -16 -9 -19 -20 -6 -25 5 -26
25 -2 23 27 30 42 19 42 -6 0 -11 -4 -11 -10z"/>
<path d="M1790 5772 c-37 -41 -41 -54 -7 -23 20 19 37 36 37 38 0 8 -17 0 -30
-15z"/>
<path d="M2040 5325 c0 -8 72 -117 109 -164 l18 -24 91 62 c114 78 123 88 85
96 -15 4 -41 11 -58 16 -40 13 -245 24 -245 14z m164 -101 c7 -19 -10 -44 -31
-44 -17 0 -27 24 -19 45 7 20 42 19 50 -1z"/>
<path d="M2042 5758 c-7 -7 -12 -18 -12 -25 0 -19 27 -4 33 18 6 22 -3 25 -21
7z"/>
<path d="M1466 5503 c9 -37 24 -53 24 -26 0 28 -10 53 -21 53 -5 0 -6 -12 -3
-27z"/>
<path d="M1570 5521 c0 -6 5 -13 10 -16 6 -3 10 1 10 9 0 9 -4 16 -10 16 -5 0
-10 -4 -10 -9z"/>
<path d="M1390 5504 c0 -8 5 -12 10 -9 6 4 8 11 5 16 -9 14 -15 11 -15 -7z"/>
<path d="M1400 5460 c0 -5 5 -10 11 -10 5 0 7 5 4 10 -3 6 -8 10 -11 10 -2 0
-4 -4 -4 -10z"/>
<path d="M2080 4980 c-12 -8 -9 -10 11 -10 36 0 40 -8 24 -47 -19 -45 -20 -72
-3 -55 10 10 40 104 35 108 -13 9 -56 11 -67 4z"/>
<path d="M1794 4972 c-11 -7 -34 -45 -34 -56 0 -15 33 10 41 32 11 28 9 34 -7
24z"/>
<path d="M1951 4953 c-7 -18 -21 -35 -32 -38 -28 -9 -49 -34 -49 -57 0 -15 5
-19 19 -15 10 2 26 0 35 -5 13 -7 16 -4 16 15 0 14 7 41 16 62 8 20 13 44 11
53 -3 12 -8 7 -16 -15z m-33 -73 c-7 -10 -14 -18 -15 -16 -6 6 9 36 18 36 5 0
4 -9 -3 -20z"/>
<path d="M2340 4935 c-18 -22 -2 -49 31 -53 23 -3 23 -3 5 11 -25 18 -12 37
25 37 40 0 47 -23 21 -76 -19 -39 -20 -45 -6 -59 13 -12 19 -13 30 -4 18 15
18 20 -1 13 -19 -8 -19 6 0 42 31 60 16 89 -51 100 -31 4 -43 2 -54 -11z"/>
<path d="M2520 4911 c-5 -11 -12 -40 -15 -66 -2 -25 -9 -55 -15 -66 -7 -11 -9
-23 -7 -26 9 -8 34 48 50 110 15 57 8 85 -13 48z"/>
<path d="M1839 4913 c-17 -4 -44 -52 -34 -61 3 -3 16 -6 29 -8 20 -2 25 3 29
29 5 36 0 45 -24 40z"/>
<path d="M1974 4886 c-24 -20 -26 -26 -15 -40 19 -22 26 -20 27 10 2 32 12 43
24 24 8 -13 10 -12 10 2 0 28 -17 30 -46 4z"/>
<path d="M2189 4898 c0 -2 -3 -14 -5 -28 -3 -13 -9 -29 -14 -34 -17 -17 -24 3
-11 30 9 20 9 25 -1 22 -38 -13 -34 -68 6 -68 43 0 53 9 48 41 -3 23 -20 50
-23 37z"/>
<path d="M2237 4883 c-14 -14 -7 -32 11 -26 14 5 15 3 5 -8 -18 -18 -16 -39 3
-39 22 0 75 40 68 51 -3 5 -10 7 -15 4 -5 -4 -16 1 -25 9 -16 17 -36 21 -47 9z
m45 -55 c-7 -7 -12 -8 -12 -2 0 14 12 26 19 19 2 -3 -1 -11 -7 -17z"/>
<path d="M2549 4839 c-31 -31 -21 -54 26 -55 22 0 42 -2 45 -4 3 -1 24 -4 47
-5 33 -3 48 2 69 21 14 14 23 28 19 32 -3 4 -15 -4 -25 -18 -21 -27 -26 -21
-10 10 7 13 7 21 0 25 -13 8 -39 -12 -51 -40 -7 -15 -8 -12 -3 13 6 36 -9 43
-28 12 -7 -11 -17 -20 -22 -20 -5 0 -6 3 -3 6 10 10 -12 44 -28 44 -8 0 -24
-9 -36 -21z m41 -2 c0 -7 -6 -21 -13 -32 -19 -26 -30 -3 -11 23 17 25 24 28
24 9z"/>
<path d="M2065 4830 c4 -6 11 -8 16 -5 14 9 11 15 -7 15 -8 0 -12 -5 -9 -10z"/>
<path d="M2433 4745 c-7 -20 2 -29 21 -22 9 4 13 13 10 22 -8 19 -23 19 -31 0z"/>
<path d="M1790 4630 c0 -5 5 -10 10 -10 6 0 10 5 10 10 0 6 -4 10 -10 10 -5 0
-10 -4 -10 -10z"/>
<path d="M2920 9760 c0 -5 5 -10 10 -10 6 0 10 5 10 10 0 6 -4 10 -10 10 -5 0
-10 -4 -10 -10z"/>
<path d="M2375 8956 c-44 -13 -62 -45 -23 -41 13 2 36 8 51 14 15 6 31 10 35
9 4 -1 16 3 26 7 19 8 19 9 0 16 -26 10 -42 9 -89 -5z"/>
<path d="M1908 8883 c6 -2 18 -2 25 0 6 3 1 5 -13 5 -14 0 -19 -2 -12 -5z"/>
<path d="M1625 8635 c-16 -7 -39 -20 -50 -29 -20 -15 -19 -16 13 -41 17 -15
32 -31 32 -37 0 -20 71 -158 81 -158 6 0 2 15 -9 33 -11 17 -30 65 -43 106
-22 71 -22 75 -6 104 10 16 16 31 15 33 -2 1 -16 -4 -33 -11z"/>
<path d="M1980 8406 c-20 -8 -55 -17 -78 -21 -23 -4 -42 -11 -42 -16 0 -12 3
-12 92 12 43 12 78 25 78 30 0 11 -7 11 -50 -5z"/>
<path d="M1758 8363 c12 -2 30 -2 40 0 9 3 -1 5 -23 4 -22 0 -30 -2 -17 -4z"/>
<path d="M2087 8313 c-12 -11 -8 -23 7 -23 7 0 19 7 26 15 10 12 9 15 -7 15
-11 0 -23 -3 -26 -7z"/>
<path d="M2285 8140 c-11 -4 -30 -6 -42 -3 -24 5 -110 -22 -133 -44 -21 -19
-1 -17 89 7 49 14 85 18 105 14 40 -10 45 -11 81 -13 28 -2 29 -3 8 -11 -33
-13 -28 -25 11 -27 25 -2 40 4 60 24 15 14 25 31 23 37 -7 21 -161 33 -202 16z"/>
<path d="M2020 8060 c0 -5 9 -10 19 -10 11 0 23 5 26 10 4 6 -5 10 -19 10 -14
0 -26 -4 -26 -10z"/>
<path d="M340 1306 c0 -2 7 -7 16 -10 8 -3 12 -2 9 4 -6 10 -25 14 -25 6z"/>
<path d="M570 1070 c0 -5 5 -10 11 -10 5 0 7 5 4 10 -3 6 -8 10 -11 10 -2 0
-4 -4 -4 -10z"/>
<path d="M604 966 c-4 -9 -4 -20 0 -23 3 -4 12 -1 18 5 9 9 9 15 0 24 -9 9
-13 7 -18 -6z"/>
<path d="M580 900 c0 -5 5 -10 10 -10 6 0 10 5 10 10 0 6 -4 10 -10 10 -5 0
-10 -4 -10 -10z"/>
</g>
</svg>
